<svg xmlns="http://www.w3.org/2000/svg" width="193.88" height="434.678"><path d="M49.677 432.607a417.211 417.211 0 01-43.468 2.071v-5.521c77.276-6.209 100.045-44.846 100.045-111.083 0-48.987-22.769-84.176-63.476-101.424-10.349-4.141-26.22-7.59-42.778-8.28v-4.83c6.209-.69 17.939-2.76 25.529-5.52 34.5-12.419 55.887-51.058 55.887-93.835 0-72.447-31.739-94.526-75.9-98.665V0c71.068 0 157.313 22.079 157.313 103.495 0 51.748-49.678 88.315-111.775 99.355v1.38c75.9 9.659 142.823 39.329 142.823 115.225.003 74.515-63.473 104.183-144.2 113.152z" fill="#fff"/></svg>