<svg xmlns="http://www.w3.org/2000/svg" width="217" height="49.909" viewBox="0 0 217 49.909"><g transform="translate(-864.576 -534.016)"><path d="M864.576,582.762c5.038-.619,6.665-2.48,6.665-8.989v-29.6c0-6.51-1.627-8.37-6.665-8.99v-.62h16.2v48.825h-16.2Z"/><path d="M892.859,583.15a46.91,46.91,0,0,1-4.883.233v-.621c8.68-.7,11.238-5.037,11.238-12.477,0-5.5-2.558-9.455-7.13-11.392a15.543,15.543,0,0,0-4.8-.93v-.542a14.859,14.859,0,0,0,2.867-.62c3.875-1.4,6.278-5.735,6.278-10.54,0-8.138-3.565-10.618-8.525-11.083v-.62c7.982,0,17.669,2.48,17.669,11.625,0,5.813-5.579,9.92-12.554,11.16v.155c8.524,1.085,16.042,4.418,16.042,12.942C909.056,578.81,901.926,582.143,892.859,583.15Z"/><path d="M908.2,583.383v-.621a10.891,10.891,0,0,0,6.665-3.409,22.92,22.92,0,0,0,5.115-8.293l.62.31a27.641,27.641,0,0,0-.775,5.425c0,3.8,2.635,5.658,6.51,5.967v.621Zm28.985-18.833h-14.8l.7-2.014h13.33l-6.587-17.9,4.184-10.617h1.706l15.267,39.6c2.48,6.277,5.425,8.6,9.222,9.144v.621H936.1v-.621c3.8-.232,5.58-1.394,5.58-4.339a18.339,18.339,0,0,0-1.628-6.2Z"/><path d="M960.2,583.383v-.621a10.891,10.891,0,0,0,6.665-3.409,22.919,22.919,0,0,0,5.115-8.293l.62.31a27.641,27.641,0,0,0-.775,5.425c0,3.8,2.635,5.658,6.51,5.967v.621Zm28.985-18.833h-14.8l.7-2.014h13.33l-6.588-17.9,4.185-10.617h1.7l15.268,39.6c2.48,6.277,5.425,8.6,9.222,9.144v.621H988.1v-.621c3.8-.232,5.58-1.394,5.58-4.339a18.339,18.339,0,0,0-1.628-6.2Z"/><path d="M1012.215,583.383v-.621c2.945-.232,5.347-1.162,7.052-3.177,1.938-2.247,3.565-6.665,4.418-10.385h.775c-.155,3.178.232,8.06,1.782,10.23s4.185,3.255,7.6,3.332v.621Zm34.177.542h-.387l-18.6-38.672c-1.783-3.642-3.41-5.967-5.58-7.595a13.88,13.88,0,0,0-6.433-2.48v-.62h17.748l18.6,38.75Zm16.972-49.367h16.817v.62c-5.812.543-6.974,3.1-6.742,9.455l1.008,28.6c.309,6.9,1.937,8.99,7.129,9.532v.621H1058.4v-.621c4.495-.542,6.433-2.092,6.433-7.207v-2.4Z"/></g></svg>